<svg xmlns="http://www.w3.org/2000/svg" viewBox="0 0 64 64" role="img" aria-label="Triton Control">
  <defs>
    <linearGradient id="bg" x1="8" x2="56" y1="6" y2="58" gradientUnits="userSpaceOnUse">
      <stop stop-color="#22d3ee" />
      <stop offset="1" stop-color="#0f766e" />
    </linearGradient>
    <filter id="shadow" x="-20%" y="-20%" width="140%" height="140%">
      <feDropShadow dx="0" dy="4" stdDeviation="4" flood-color="#0f172a" flood-opacity=".28" />
    </filter>
  </defs>
  <path
    fill="url(#bg)"
    filter="url(#shadow)"
    d="M14 17a6 6 0 0 1 6-6h24a6 6 0 0 1 6 6v30a6 6 0 0 1-6 6H20a6 6 0 0 1-6-6V17Z"
  />
  <path fill="#ecfeff" d="M24 21h19a3 3 0 1 1 0 6H24a3 3 0 1 1 0-6Zm0 16h19a3 3 0 1 1 0 6H24a3 3 0 1 1 0-6Z" />
  <circle cx="21" cy="24" r="2.2" fill="#0f172a" />
  <circle cx="21" cy="40" r="2.2" fill="#0f172a" />
  <path
    fill="none"
    stroke="#67e8f9"
    stroke-linecap="round"
    stroke-width="3.5"
    d="M47 12c5 4 8 11 8 20s-3 16-8 20"
    opacity=".9"
  />
</svg>
